<svg width="250" height="251" viewBox="0 0 250 251" fill="none" xmlns="http://www.w3.org/2000/svg">
<style>
    line, path { 
        stroke: #2F3E46; 
    }
    <!-- @media (prefers-color-scheme: dark) {
        line, path { 
            stroke: #E1E3E4; 
        }
    } -->
</style>
<line y1="2.5" x2="250" y2="2.5" stroke-width="5"/>
<line x1="0.00408553" y1="51.5" x2="102.001" y2="51.6667" stroke-width="5"/>
<line x1="99.5" y1="251" x2="99.4964" y2="1.00004" stroke-width="5"/>
<line x1="149.504" y1="251" x2="149.5" y2="1.00004" stroke-width="5"/>
<line x1="152.004" y1="51.333" x2="250.004" y2="51.5032" stroke-width="5"/>
<line x1="2.5" y1="5" x2="2.5" y2="50" stroke-width="5"/>
<line x1="97" y1="248.5" x2="152" y2="248.5" stroke-width="5"/>
<path d="M247.5 5V50" stroke-width="5"/>
<line x1="109.5" y1="65" x2="109.5" y2="215" stroke-width="5"/>
<line x1="129.5" y1="91" x2="129.5" y2="241" stroke-width="5"/>
<line x1="139.5" y1="117" x2="139.5" y2="241" stroke-width="5"/>
<line x1="119.5" y1="10" x2="119.5" y2="160" stroke-width="5"/>
<line x1="109.5" y1="10" x2="109.5" y2="60" stroke-width="5"/>
<line x1="129.5" y1="10" x2="129.5" y2="86" stroke-width="5"/>
<line x1="119.5" y1="165" x2="119.5" y2="241" stroke-width="5"/>
<line x1="139.5" y1="36" x2="139.5" y2="112" stroke-width="5"/>
<line x1="109.5" y1="220" x2="109.5" y2="241" stroke-width="5"/>
<line x1="139.5" y1="10" x2="139.5" y2="31" stroke-width="5"/>
</svg>